<svg width="16" height="24" viewBox="0 0 16 24" fill="none" xmlns="http://www.w3.org/2000/svg">
  <g clip-path="url(#clip0_1_6)">
    <path
      d="M4.14174 19.641L4.39873 19.7697C5.44659 20.394 6.64454 20.7203 7.86371 20.7136C11.617 20.705 14.7008 17.6088 14.7008 13.8493C14.7008 12.0324 13.9804 10.2876 12.6993 9.00137C11.42 7.70187 9.67205 6.96951 7.85045 6.96951C4.11431 6.96951 1.04036 10.049 1.04036 13.7909C1.04036 13.8205 1.04036 13.8497 1.04079 13.8793C1.05204 15.1515 1.40728 16.3969 2.06873 17.483L2.24004 17.7404L1.55476 20.2717L4.14174 19.641Z"
      fill="#00E676" />
    <path
      d="M13.4617 8.22912C12.0033 6.73872 10.0026 5.90257 7.91937 5.91241H7.90611C3.61578 5.91241 0.0852413 9.44883 0.0852413 13.7463C0.0852413 13.7665 0.0856709 13.7862 0.0856709 13.8064C0.101831 15.1727 0.454953 16.5138 1.11361 17.7104L0 21.7861L4.15031 20.7136C5.29684 21.3441 6.5858 21.669 7.89368 21.6574C12.1999 21.6338 15.73 18.0772 15.7274 13.7634C15.7377 11.6909 14.9218 9.69764 13.4617 8.22912ZM7.91937 20.3274C6.76001 20.3335 5.62108 20.0219 4.6257 19.4265L4.36875 19.2978L1.8974 19.9413L2.53985 17.4959L2.36854 17.2385C1.73216 16.2092 1.39501 15.0226 1.39499 13.812C1.39499 10.2417 4.32807 7.3037 7.89242 7.3037C11.4568 7.3037 14.3898 10.2417 14.3898 13.812C14.3898 16.06 13.227 18.1545 11.3202 19.3407C10.3117 19.9878 9.13849 20.3303 7.94081 20.3274M11.7056 15.5653L11.2345 15.3508C11.2345 15.3508 10.5492 15.0505 10.1209 14.836C10.0781 14.836 10.0352 14.7931 9.99238 14.7931C9.88682 14.7957 9.78362 14.8253 9.69258 14.8789C9.60134 14.9325 9.64977 14.9218 9.05012 15.6082C9.00944 15.6885 8.92591 15.7387 8.83597 15.7369H8.79313C8.72876 15.7261 8.66907 15.6963 8.62182 15.6511L8.40767 15.5653C7.94817 15.3705 7.52742 15.0944 7.16557 14.7502C7.07992 14.6644 6.95142 14.5786 6.86577 14.4928C6.54869 14.1886 6.27486 13.8421 6.05197 13.4631L6.00913 13.3774C5.97195 13.3249 5.94303 13.267 5.92348 13.2057C5.91226 13.1314 5.92745 13.0555 5.96632 12.9912C6.00527 12.9269 6.13763 12.7767 6.26612 12.648C6.39462 12.5193 6.39462 12.4335 6.48027 12.3477C6.5243 12.2865 6.55471 12.2165 6.56951 12.1425C6.58426 12.0685 6.58308 11.9922 6.56593 11.9187C6.36633 11.3636 6.13759 10.8193 5.88067 10.2884C5.81178 10.1811 5.70448 10.1043 5.58083 10.0739H5.10968C5.02403 10.0739 4.93837 10.1168 4.85272 10.1168L4.80987 10.1597C4.72422 10.2026 4.63857 10.2884 4.55288 10.3313C4.46723 10.3742 4.42442 10.5029 4.33877 10.5887C4.03932 10.9677 3.87365 11.4354 3.86761 11.9187C3.87236 12.2586 3.94517 12.5942 4.08177 12.9054L4.12458 13.0341C4.50917 13.8577 5.04704 14.6003 5.70932 15.2221L5.88067 15.3937C6.00531 15.4971 6.12004 15.6121 6.22328 15.7369C7.11073 16.5105 8.1648 17.0682 9.30283 17.3672C9.43133 17.4101 9.60264 17.4101 9.73113 17.453H10.1594C10.3833 17.442 10.6023 17.3835 10.8019 17.2814C10.9068 17.2338 11.0071 17.1763 11.1017 17.1098L11.1874 17.024C11.273 16.9382 11.3587 16.8953 11.4443 16.8095C11.5281 16.7348 11.6003 16.648 11.6585 16.5521C11.7408 16.3599 11.7986 16.1582 11.8298 15.9515V15.6511C11.7914 15.6165 11.7481 15.5876 11.7013 15.5653"
      fill="white" />
  </g>
</svg>